<?xml version="1.0" encoding="utf-8"?>
<!-- Generator: Adobe Illustrator 28.0.0, SVG Export Plug-In . SVG Version: 6.00 Build 0)  -->
<svg version="1.1" xmlns="http://www.w3.org/2000/svg" xmlns:xlink="http://www.w3.org/1999/xlink" x="0px" y="0px"
	 viewBox="0 0 720 720" style="enable-background:new 0 0 720 720;" xml:space="preserve">
<style type="text/css">
	.st0{display:none;}
	.st1{display:inline;}
	.st2{fill:#171A31;}
	.st3{fill:#FFFFFF;}
</style>
<g id="katman_2" class="st0">
	<g class="st1">
		<rect x="4.64" y="1.07" class="st2" width="691.07" height="718.93"/>
	</g>
</g>
<g id="katman_3">
	<circle class="st2" cx="349.11" cy="374.46" r="330.54"/>
</g>
<g id="katman_1">
	<path class="st3" d="M377,196c-0.1-1.95-25.21-5.07-53,0c-40.37,7.36-69.95,28.97-69,31c0.81,1.72,23.37-11.27,65-21
		C354.24,198,377.1,197.87,377,196z"/>
	<path class="st3" d="M225,233c-0.43-1.14-22.53,2.76-44,17c-19.3,12.8-30.83,29.15-30,30c0.79,0.81,12.53-12.71,35-27
		C208.5,238.68,225.38,234.01,225,233z"/>
	<path class="st3" d="M448,200c0.64-2.81,44.29-3.95,84,21c14.57,9.16,54.79,34.43,57,78c2.73,53.73-54.25,97.66-69,90
		c-19.53-10.14,39.1-108.66-4-159C491.72,201.64,447.36,202.84,448,200z"/>
	<path class="st3" d="M602,257c13.46,17.33,16.44,31.76,17,41c4.15,69-110.43,129.55-181,150c-35.34,10.24-66.27,12.34-80.97,13.27
		c-18.81,1.18-83.59,5.25-86.03-6.27c-3.14-14.82,95.26-64,205-88c58.32-12.75,105.88-15.34,124-50
		C610.74,296.47,606.76,273.07,602,257z"/>
	<path class="st3" d="M568,295"/>
	<path class="st3" d="M267,480c29.01,14.15,54.61,19.31,60.73,20.48c0,0,45.61,8.73,95.27-0.48c112.08-20.79,214.93-141.72,212-145
		c-1.74-1.94-91.06,114.87-217,123c-56.11,3.62-105-8-105-8c-55.32-18.44-95.3-35.82-98-31c-1.85,3.3,12.33,14.71,20.21,21.06
		C246.72,469.32,257.54,475.38,267,480z"/>
	<path class="st3" d="M158,421c1.33,2.62,2.38,3.14,24,20c13.69,10.68,20.72,15.79,23,17c10.55,5.62,21.03,8.08,42,13
		c7.94,1.86,11.91,2.79,14,3c23.41,2.32,43.03-13.31,48-17c52.5-38.97,190.88-18.54,234-98c11.59-21.35,18.27-49.86,9-57
		c-17.16-13.21-74.99,57.62-187,92c-19.79,6.07-29.68,9.11-43.94,9.83C249.1,407.45,213.61,349.37,180,366
		C160.44,375.68,150.52,406.2,158,421z"/>
	<path class="st3" d="M457,518c0.4,1.69,26.8,0.68,54-12c28.78-13.42,47.09-34.6,46-36c-0.99-1.27-17.6,14.13-49,29
		C478.05,513.18,456.64,516.46,457,518z"/>
	<path class="st3" d="M383,543c-0.3-2.33-41.06,6.65-103,2c-63.27-4.75-103.33-20.31-104-18c-0.71,2.46,43.53,24.4,101,29
		C335.36,560.67,383.33,545.54,383,543z"/>
	<path class="st3" d="M165,416c0.16,0.33,1.21,2.37,2.3,5.27c1.77,4.7,2.41,8.43,3.7,12.73c5.65,18.86,19.16,30.66,31,41
		c20.39,17.81,40.49,24.25,74,35c9.18,2.94,34.55,10.69,70,16c38.42,5.76,59,4.03,59,5c0.01,1.96-84.28,15.69-174-14
		c-33.01-10.92-66.31-23.89-85-58c-30.18-55.08,3.77-121.42,7-121C156.11,338.41,159.46,404.5,165,416z"/>
	<path class="st3" d="M295,243c0.87,2.13-29.2,15-98,51c-60.11,31.46-73.4,40.59-87,56c-27.37,31-36.33,65.09-39,64
		c-2.12-0.87,1.82-23.09,14-45c15.54-27.94,37.67-43.08,69-64c9.15-6.11,29.33-19.08,59-33C253.8,252.85,294.02,240.59,295,243z"/>
	<path class="st3" d="M76,439c1.97-0.11,0.68,15.64,11,34c7.82,13.91,16.98,19.83,16,21c-1.25,1.49-18.22-5.58-26-21
		C69.05,457.24,73.9,439.11,76,439z"/>
	<path class="st3" d="M135,497c0.97-0.8-22.24-19.76-26-51c-1.87-15.52,1.82-27.79,5-38c3.01-9.67,9.45-27.82,39-66
		c22.71-29.35,36.99-39.42,35-42c-1.9-2.47-16.25,4.67-27,12c-5.5,3.75-28.67,20.23-47,59c-12.48,26.39-22.84,48.06-17,74
		C104.61,478.81,133.97,497.85,135,497z"/>
	<path class="st3" d="M534,332"/>
	<path class="st3" d="M322,222c-0.18-3.01,52.46-12.78,113-5c41.81,5.37,62.12,15.86,76,26c19.44,14.2,36.2,34.92,33,39
		c-4.81,6.14-47.07-35.43-118-53C367.02,214.39,322.17,224.78,322,222z"/>
	<path class="st3" d="M192,265c-0.63-2.28,59.36-28.88,138-36c71.28-6.46,129.15,5.69,129,8c-0.14,2.25-55.37-5.51-136,3
		C243.17,248.42,192.58,267.07,192,265z"/>
	<path class="st3" d="M288.09,346.75c-0.32,3.6-1.08,17.15,8.2,27.32c6.21,6.81,14.03,8.93,20.25,10.61
		c11.17,3.02,20.56,2.07,25.39,1.45c33.29-4.3,53.6-19.48,55.45-16.88c2.26,3.18-23.32,37.15-61.07,40.18
		c-8.2,0.66-26.33,2.1-39.38-10.45C284.43,386.96,281.01,366.51,288.09,346.75z"/>
	<path class="st3" d="M358.8,370.86c-0.07-1.29,17.08,0.39,37.77-9.64c2.38-1.15,10.9-5.42,20.09-13.66
		c7.78-6.97,24.36-21.69,22.5-38.57c-0.23-2.13-0.94-8.56-5.62-13.66c-4.66-5.08-10.6-5.94-10.45-6.43
		c0.23-0.75,14.79-1.02,22.5,8.04c8.33,9.78,3.68,24.57,0.8,33.75c-1.26,4-8.52,28.08-29.73,36.16c-2.61,0.99-5.22,1.47-10.45,2.41
		C381.08,373.8,358.88,372.33,358.8,370.86z"/>
	<path class="st3" d="M402.2,343.54c0.36,0.56,6.81-2.36,12.67-6.94c4.15-3.24,6.88-6.14,7.42-6.72c6.15-6.6,13.64-14.21,13.66-21.7
		c0.03-11.44-14.41-20.63-20.09-24.11c-24.58-15.05-57.7-13.28-79.39,1.29c-6.73,4.52-12.24,10.2-11.41,11.57
		c1.26,2.08,15.45-8.99,36.16-8.84c5.39,0.04,15.61-0.22,26.52,5.62c10.07,5.39,15.42,13.01,18.48,17.36
		c4.31,6.13,5.16,9.77,5.46,11.57c0.26,1.53,1.46,8.29-2.25,14.14C406.54,341.33,401.96,343.17,402.2,343.54z"/>
	<path class="st3" d="M268.8,313c2.04,3.41,15.77-4.12,42.59-9.64c15.48-3.19,26.27-5.57,40.98-4.82c9.87,0.5,17.44,2.14,27.67,4.36
		c15.63,3.39,19.93,5.94,22.04,7.35c10.83,7.21,14.25,17.7,14.69,17.45c0.57-0.33-3.76-19.03-19.4-29.16
		c-7.46-4.83-16.48-5.74-34.55-7.23c-9.51-0.78-11.47-0.47-35.36-0.8c-27.69-0.38-32.13-0.9-39.38,2.41
		C275.89,298.49,266.9,309.83,268.8,313z"/>
	<path class="st3" d="M239.88,321.84c7.15-7.2,21.4-8.17,28.93-8.84c5.22-0.46,9.4-0.27,15.27,0c12.49,0.58,24.96,2.28,24.91,3.21
		c-0.03,0.58-5.66-0.42-14.41,1.5c-9.47,2.08-16.02,5.73-17.89,6.86c-5.99,3.62-10.39,7.88-13.5,11.57l0,0
		c-0.03,0.04-2.82,3.72-4.82,7.39c-7.05,12.93-8.58,36.57-12.05,36.96C241.46,381.04,223.63,338.19,239.88,321.84z"/>
	<path class="st3" d="M443.18,298.54c-0.72,0.6,12.17,10.55,11.25,24.11c-1.15,17.01-23.02,24.91-20.89,29.73
		c2.4,5.43,33.79,3.66,39.38-10.45C479.76,324.64,444.37,297.55,443.18,298.54z"/>
	<path class="st3" d="M373.27,389.34"/>
	<path class="st3" d="M370.86,392.55c7.77-8.3,15.54-16.61,23.3-24.91"/>
	<path class="st3" d="M371.66,386.93c-0.21-1.61,1-3.83,25.71-17.68c13.62-7.63,20.42-11.44,24.11-12.86
		c17.76-6.81,44.23-9.7,47.41-2.41c3.88,8.88-25.14,36.78-58.66,40.98C392.21,397.22,372.4,392.7,371.66,386.93z"/>
	<path class="st3" d="M542.82,296.93c0.36-11.05-5.82-20.21-11.25-26.52c-49.27-57.2-176.04-39.78-189.64-37.77
		c-78.7,11.63-138.15,47.85-160.71,61.88c-1.78,1.1-6.48,2.95-11.25,7.23c-8.83,7.94-12.34,18.16-14.46,26.52
		c-8.06,31.73-13.75,54.13-1.61,71.52c22.71,32.5,91.04,23.52,98.84,4.02c3.57-8.92-7.36-15.47-8.04-39.38
		c-0.2-6.99-0.57-20.16,6.43-32.95c9.48-17.33,27.15-24.21,43.39-30.54c9.94-3.87,7.45-1.61,42.59-10.45
		c23.46-5.9,31.53-10.55,45-9.64c8.33,0.56,19.77,1.32,26.46,5.57c0.84,0.53,3.44,2.29,7.29,3c4.18,0.78,7.26-0.15,9-0.43
		c7.21-1.14,14.15,5.26,21,11.57c3.92,3.61,13.22,12.4,17.41,26.89c3.63,12.55-0.33,16.87,3.21,20.09
		C479.78,359.62,541.73,330.84,542.82,296.93z"/>
	<path class="st3" d="M199.7,288.09"/>
	<path class="st3" d="M149.88,385.32"/>
	<path class="st3" d="M315.41,411.04c1.47-12.65-32.09-17.75-39.38-45.8c-0.91-3.49-3.07-12.29,0.8-20.89
		c4.94-10.97,16.67-14.94,16.07-16.07c-0.59-1.11-12.45,1.75-23.3,10.45c-9.68,7.75-14.37,16.8-18.48,24.91
		c-7.38,14.57-11.27,22.25-9.64,32.14c2.35,14.3,14.96,25.67,28.12,29.73C289.93,431.77,314.2,421.43,315.41,411.04z"/>
	<path class="st3" d="M272.82,320.23"/>
	<path class="st3" d="M487.86,310.11"/>
	<path class="st3" d="M508.75,327.14"/>
	<path class="st3" d="M452.18,392.71"/>
</g>
</svg>
